<svg width="100" height="100" viewBox="0 0 100 100" fill="none" xmlns="http://www.w3.org/2000/svg">
<path d="M45.9234 88.5833C30.631 88.5833 18.75 76.6579 18.75 61.3021C18.75 45.9463 30.631 34.0208 45.9234 34.0208C56.3333 34.0208 65.4167 39.7396 70.3125 48.1771L84.375 41.6667C76.8229 28.5937 62.5 20.25 45.9234 20.25C22.9242 20.25 4.16667 39.0602 4.16667 61.3021C4.16667 83.544 22.9242 102.354 45.9234 102.354C54.4271 102.354 62.2396 99.6354 68.75 94.7396L62.7604 80.4687C57.5521 85.6771 52.0833 88.5833 45.9234 88.5833Z" fill="#64B5F6"/>
<path d="M81.25 20.25V4.64583L95.8333 12.4479V28.125L81.25 20.25Z" fill="#FFB74D"/>
<path d="M95.8333 34.0208L81.25 26.2187V48.1771L95.8333 55.9792V34.0208Z" fill="#64B5F6"/>
</svg>
